<?xml version="1.0" encoding="utf-8"?>
<!DOCTYPE svg PUBLIC "-//W3C//DTD SVG 20010904//EN" "http://www.w3.org/TR/2001/REC-SVG-20010904/DTD/svg10.dtd">
<svg version="1.0" xmlns="http://www.w3.org/2000/svg" width="1808px" height="1452px" viewBox="0 0 1808 1452" preserveAspectRatio="xMidYMid meet">
 <g fill="#c41e3a">
  <path d="M0 726 l0 -726 904 0 904 0 0 726 0 726 -904 0 -904 0 0 -726z"/>
 </g>
 <g fill="#fafafa">
  <path d="M0 1450.5 c0 -1.3 101.1 -1.5 904 -1.5 802.9 0 904 0.2 904 1.5 0 1.3 -101.1 1.5 -904 1.5 -802.9 0 -904 -0.2 -904 -1.5z"/>
  <path d="M88.6 1211.4 c-1.4 -1.4 -1.6 -10 -1.6 -80 0 -52.2 0.3 -79.2 1 -80.5 1 -1.8 2.5 -1.9 40.3 -1.9 29.2 0 39.6 0.3 40.5 1.2 1.4 1.4 1.7 22.5 0.4 24.5 -0.6 0.9 -7.5 1.3 -26.7 1.5 l-26 0.3 0 20 0 20 20 0.5 20 0.5 0.5 7.5 c0.3 4.1 0.3 10 0 13 l-0.5 5.5 -20 0.5 -20 0.5 -0.3 33 c-0.2 29.6 -0.4 33.1 -1.9 34.3 -2.7 1.9 -23.7 1.7 -25.7 -0.4z"/>
  <path d="M188.6 1211.4 c-1.4 -1.4 -1.6 -9.1 -1.6 -70.4 0 -62.4 0.2 -69 1.6 -70.5 1.5 -1.5 4.9 -1.6 31.3 -1.3 28.4 0.3 29.8 0.4 34.6 2.6 8.8 4.1 12.4 9 14.4 19.7 1.6 8.6 1.4 50.6 -0.3 57.8 -1.4 5.9 -5.6 13.4 -8.1 14.4 -0.8 0.3 -1.5 1.2 -1.5 1.9 0 0.8 2.3 11.1 5.1 22.9 4.2 17.5 4.9 21.8 3.9 23 -1.6 2 -21.7 2.2 -24.3 0.3 -1.1 -0.9 -3.3 -8.2 -6.5 -21.3 l-4.9 -20 -8.6 -0.3 -8.7 -0.3 0 20 c0 16.8 -0.2 20.2 -1.6 21.5 -1.2 1.3 -3.9 1.6 -12.4 1.6 -8.5 0 -11.2 -0.3 -12.4 -1.6z m51.3 -70.8 c2 -1.8 2.1 -2.9 2.1 -21.1 0 -24.1 0.7 -23 -15.4 -23 l-11.1 0 -0.3 22 c-0.1 12.1 0 22.6 0.3 23.3 0.4 1.1 2.9 1.3 11.4 1 9 -0.2 11.3 -0.6 13 -2.2z"/>
  <path d="M282.1 1211.6 c-0.9 -1 1.8 -13.2 11.8 -53.2 7.1 -28.6 14.8 -59.7 17.1 -69.2 2.3 -9.5 4.9 -17.9 5.7 -18.7 1.1 -1.2 4.7 -1.5 16.6 -1.5 8.4 0 15.7 0.4 16.4 0.8 0.7 0.4 7.1 24.4 14.3 53.2 7.2 28.9 14.8 59.5 17 68.1 4.4 17.1 4.8 20.4 2.4 21.3 -0.9 0.3 -6.2 0.6 -11.9 0.6 -7.6 0 -10.6 -0.4 -11.4 -1.4 -1 -1.2 -3 -7.6 -7.1 -23.4 l-1.1 -4.2 -18.7 0.2 -18.7 0.3 -3.5 13.1 c-1.9 7.1 -3.9 13.5 -4.3 14.2 -1.2 1.8 -23.1 1.7 -24.6 -0.2z m62.9 -52.9 c0 -2 -10.9 -48.9 -11.5 -49.5 -0.2 -0.3 -0.7 0.1 -1 0.9 -1.3 3.6 -11.2 48.5 -10.8 49.2 0.2 0.4 5.6 0.7 11.9 0.7 8.9 0 11.4 -0.3 11.4 -1.3z"/>
  <path d="M402.8 1211.9 c-1.7 -0.9 -1.8 -5.4 -1.8 -70.7 0 -53 0.3 -70.1 1.2 -71 1.4 -1.4 18.5 -1.7 20.6 -0.3 0.8 0.4 9.8 17.9 20.2 38.7 l18.8 37.9 0.1 -37.2 c0.1 -32.4 0.3 -37.4 1.7 -38.7 2 -2 22.3 -2.3 24.2 -0.4 0.9 0.9 1.2 18 1.2 71 0 67.9 -0.1 69.8 -1.9 70.8 -2.8 1.5 -18.4 1.3 -20.3 -0.2 -0.9 -0.7 -9.9 -18.1 -19.9 -38.7 l-18.4 -37.5 -0.5 37.8 c-0.4 32 -0.7 37.8 -2 38.6 -2 1.3 -21 1.2 -23.2 -0.1z"/>
  <path d="M529.6 1211.9 c-6.1 -1.5 -12.9 -5.6 -15.5 -9.4 -5.5 -8.1 -5.5 -8.5 -5.9 -56.8 -0.4 -56.1 0.1 -60 8.6 -68.9 6 -6.3 10.6 -7.3 33.7 -7.3 18.8 0 20.3 0.1 25 2.3 6.3 2.9 10.1 6.5 12.7 12.2 1.9 3.9 2.2 6.9 2.6 21.4 0.4 15.5 0.2 17.1 -1.4 18.3 -1.9 1.4 -21 1.9 -23.1 0.5 -0.7 -0.4 -1.2 -4.9 -1.5 -11.8 -0.2 -9.2 -0.6 -11.6 -2.2 -13.2 -3.6 -4 -20.7 -4.1 -24.7 -0.1 -1.8 1.8 -1.9 4 -1.9 41.9 l0 40.1 2.5 2.4 c2.2 2.3 3.2 2.5 11.8 2.5 13.8 0 14.1 -0.4 14.6 -15.8 0.4 -14.1 -0.6 -13.2 13.7 -13.2 13.2 0 12.7 -0.9 12.2 19.6 -0.3 15.9 -0.5 17.2 -3 21.9 -3.2 6.2 -5.9 8.8 -12.3 11.7 -4.6 2.1 -6.6 2.3 -23.5 2.5 -10.2 0.1 -20.3 -0.2 -22.4 -0.8z"/>
  <path d="M612.1 1211.6 c-1.7 -2 -1.6 -139.2 0 -141.2 1.6 -1.9 77.8 -2.1 79.7 -0.2 1.8 1.8 1.7 24.2 -0.1 25.7 -0.9 0.7 -10.1 1.2 -26.8 1.3 l-25.4 0.3 0 15 0 15 20 0.3 c14.4 0.2 20.1 0.6 20.7 1.5 0.4 0.6 0.8 6.2 0.8 12.4 0 8.8 -0.3 11.5 -1.6 12.7 -1.3 1.3 -4.6 1.6 -21 1.6 l-19.4 0 0 14.5 0 14.5 25.8 0 c18.7 0 26.1 0.3 27 1.2 0.8 0.8 1.2 5.1 1.2 12.8 0 7.7 -0.4 12 -1.2 12.8 -1.9 1.9 -78.1 1.7 -79.7 -0.2z"/>
  <path d="M726.2 1211.6 c-8.8 -2.2 -14.8 -7.6 -17.8 -15.8 -2.1 -5.9 -3.1 -26.2 -1.4 -28.3 1 -1.2 3.6 -1.5 12.9 -1.5 6.4 0 12.1 0.4 12.7 0.8 0.6 0.4 1.4 4 1.6 8.1 0.7 10 2 11.1 13.3 11.1 12.4 0 12.9 -0.6 13.3 -15.9 l0.4 -12 -25.1 -8.1 c-13.7 -4.5 -26 -8.9 -27.3 -10 -2.3 -1.8 -2.3 -2 -2.3 -25.2 0 -26.5 0.8 -30.7 7.2 -37.3 6.6 -6.8 10.5 -7.9 30.2 -8.3 11.5 -0.3 19.4 0 23.3 0.8 11.8 2.5 18.6 9.5 20.7 21.4 1.5 8.1 1.4 21.9 -0.1 23.4 -1.7 1.7 -24.2 1.7 -25.6 0 -0.5 -0.7 -1.2 -4.3 -1.4 -8.1 -0.6 -9.3 -1.6 -10.1 -12.6 -10.5 -7.6 -0.3 -9.1 -0.1 -11.2 1.6 -2.3 1.9 -2.5 2.8 -2.8 12.5 l-0.4 10.6 19.4 6.1 c10.6 3.4 22 7.1 25.3 8.2 10.5 3.3 10.5 3.4 10.5 28 0 11.6 -0.5 24 -1.1 27.5 -1.6 9 -5.8 14.9 -13.3 18.8 -5.9 3 -6 3 -24.5 3.2 -12.8 0.2 -20.3 -0.2 -23.9 -1.1z"/>
  <path d="M829.5 1212.3 c-11.4 -2.5 -18.1 -7.8 -21.2 -16.6 -1.6 -4.7 -1.8 -9.5 -1.8 -54.7 0 -45.2 0.2 -50 1.8 -54.7 2.7 -7.7 8.3 -12.8 16.8 -15.4 6.1 -1.9 8.9 -2.1 25.1 -1.7 18 0.3 18.4 0.3 24.3 3.3 7.1 3.5 11.7 9.6 13.4 17.5 0.6 2.8 1.1 11.4 1.1 19 0 12.7 -0.2 14 -1.9 15 -2.2 1.1 -21 1.4 -22.7 0.2 -0.7 -0.4 -1.3 -5 -1.6 -11.9 -0.3 -9.6 -0.6 -11.6 -2.3 -13.3 -4 -3.9 -20.6 -3.9 -24.6 0.1 -1.8 1.8 -1.9 3.7 -1.9 41.9 l0 40.1 2.5 2.4 c2.2 2.3 3.2 2.5 11.8 2.5 13.8 0 14.1 -0.4 14.6 -15.8 0.3 -11.3 0.4 -12.1 2.5 -12.6 3.5 -1 18.3 -0.7 21.1 0.4 l2.7 1 -0.3 16.8 c-0.4 16.4 -0.5 17 -3.4 22.7 -5.9 11.6 -13.7 14.5 -38 14.4 -8.8 -0.1 -16.9 -0.3 -18 -0.6z"/>
  <path d="M927.7 1211.5 c-8.8 -2.4 -14.1 -7.5 -17.5 -16.7 -1.4 -3.6 -1.7 -11.1 -2 -48.1 -0.5 -56.4 0.1 -61.1 8.7 -70 2.6 -2.8 5.4 -4.3 10.3 -5.8 5.9 -1.8 8.8 -2 25 -1.7 16.7 0.3 18.8 0.5 23.6 2.7 2.9 1.3 6.8 4.1 8.6 6.3 6 7 6.1 8 6.1 64.3 l0 51 -2.7 5 c-3.2 6.2 -6 8.8 -12.3 11.7 -4.6 2.1 -6.6 2.3 -24 2.5 -13.7 0.1 -20.4 -0.2 -23.8 -1.2z m32 -26.6 c1.5 -0.5 3.1 -1.6 3.5 -2.2 0.4 -0.7 0.8 -19.5 0.8 -41.9 0 -45.1 0.3 -43.1 -6.6 -44.4 -2 -0.4 -6.8 -0.4 -10.7 -0.1 -11.4 0.8 -10.7 -2.2 -10.7 44.4 0 26 0.4 40.1 1.1 41.4 0.6 1.1 2 2.4 3.2 2.9 3.1 1.2 16 1.2 19.4 -0.1z"/>
  <path d="M1082.7 1212 c-8.1 -2.1 -14.5 -6.7 -17.8 -13.2 -3.6 -7 -4 -15.5 -3.7 -73 0.3 -51.9 0.4 -55.6 2.2 -59.8 3.1 -7.1 6.4 -10.7 12.4 -13.7 5.5 -2.7 6.3 -2.8 24.9 -3.1 22.5 -0.4 27.9 0.6 34.4 6.5 7.7 7 8.4 9.4 8.4 29.8 l0 18 -12.5 0.3 c-15.4 0.3 -15 0.7 -15 -13.3 0 -13.3 -0.7 -14 -12.6 -14 -7.4 0 -8.6 0.3 -10.6 2.3 l-2.3 2.3 0 50 0 50.1 2.4 1.9 c1.9 1.5 3.9 1.9 10.7 1.9 11.8 0 12.4 -0.7 12.4 -14.2 0 -5.7 0.5 -11 1 -11.8 0.7 -1.2 3.4 -1.5 12.2 -1.6 6.2 -0.1 12.1 0.2 13.1 0.7 1.5 0.9 1.7 2.7 1.7 16.3 0 17.7 -1.2 23.1 -6.4 29.3 -2 2.3 -5.8 5 -8.8 6.4 -4.9 2.1 -6.8 2.4 -23.8 2.6 -10.2 0.1 -20.2 -0.2 -22.3 -0.7z"/>
  <path d="M1165.2 1211.8 c-0.9 -0.9 -1.2 -18 -1.2 -70.9 0 -59.3 0.2 -69.8 1.4 -70.8 1.1 -0.9 9.1 -1.1 30.8 -0.9 33.4 0.4 35.9 0.9 42.8 8.5 6.4 6.9 7 10.5 7 42.5 0 31.4 -0.6 34.7 -7.5 41.8 l-3.5 3.6 5 20.6 c5.4 22.4 5.8 25.3 3.4 26.2 -0.9 0.3 -6.2 0.6 -11.9 0.6 -7.5 0 -10.7 -0.4 -11.8 -1.4 -0.7 -0.8 -3.5 -10.4 -6.2 -21.5 l-4.9 -20.1 -8.8 0 -8.8 0 0 20.5 c0 19.2 -0.1 20.5 -1.9 21.5 -2.8 1.4 -22.4 1.3 -23.9 -0.2z m51.9 -71.7 c1.7 -2.1 1.9 -4.1 1.9 -19.6 0 -9.6 -0.4 -18.5 -1 -19.9 -1.3 -3.5 -6.5 -4.8 -17.5 -4.4 l-9 0.3 -0.3 22 c-0.1 12.1 0 22.5 0.2 23.2 0.4 0.9 3.6 1.2 12.1 1 10.9 -0.2 11.8 -0.4 13.6 -2.6z"/>
  <path d="M1267.2 1211.8 c-1.7 -1.7 -1.7 -139.9 0 -141.6 1.3 -1.3 22.2 -1.8 25.2 -0.6 1.4 0.6 1.6 7.7 1.6 70.8 0 53.3 -0.3 70.5 -1.2 71.4 -1.7 1.7 -23.9 1.7 -25.6 0z"/>
  <path d="M1342.2 1211.2 c-1 -1 -3.4 -8.5 -6 -19.2 -9.4 -39.2 -26.1 -108.9 -27.3 -114.2 -1.8 -8.4 -1.3 -8.8 12.7 -8.8 13.8 0 13.1 -0.6 16.8 16.5 8.1 38 15.7 72.3 16.5 74 0.9 2.3 1 2 12.6 -51 4.2 -19.2 8.3 -36 9.1 -37.2 1.4 -2.2 2.1 -2.3 12.8 -2.3 12.9 0 14.3 0.7 13.1 6.2 -1.2 5.5 -24.2 101.4 -29.6 123.3 -1.8 7.2 -3.6 12.5 -4.6 13.3 -1.1 0.8 -5.5 1.2 -13 1.2 -9.4 0 -11.6 -0.3 -13.1 -1.8z"/>
  <path d="M1418 1212 c-1.3 -0.8 -1.5 -9.8 -1.5 -71 0 -61.2 0.2 -70.2 1.5 -71 2.4 -1.5 78.3 -1.3 79.8 0.2 0.8 0.8 1.2 5.1 1.2 12.8 0 7.7 -0.4 12 -1.2 12.8 -0.9 0.9 -8.3 1.2 -27 1.2 l-25.9 0 0.3 15.3 0.3 15.2 19.4 0.3 c12.3 0.1 19.9 0.6 20.8 1.3 2 1.8 1.8 23.2 -0.3 25.3 -1.3 1.3 -4.6 1.6 -21 1.6 l-19.4 0 0 14.5 0 14.5 25.8 0 c18.7 0 26.1 0.3 27 1.2 1.9 1.9 1.6 23.2 -0.4 25.2 -1.3 1.4 -6.3 1.6 -39.7 1.6 -22.3 0 -38.8 -0.4 -39.7 -1z"/>
  <path d="M1519.6 1211.4 c-1.4 -1.4 -1.6 -9.1 -1.6 -70.4 0 -61.3 0.2 -69 1.6 -70.4 1.2 -1.3 3.9 -1.6 13.3 -1.6 7.8 0 12.1 0.4 12.9 1.2 0.9 0.9 1.2 15.2 1.2 58 l0 56.8 21 0 c19.7 0 21 0.1 22 1.9 0.5 1.1 1 6.7 1 12.5 0 8.2 -0.3 10.8 -1.6 12 -1.3 1.4 -5.9 1.6 -34.9 1.6 -29 0 -33.6 -0.2 -34.9 -1.6z"/>
  <path d="M1611.2 1211.8 c-0.9 -0.9 -1.2 -18 -1.2 -71 0 -67.9 0.1 -69.8 1.9 -70.8 1.1 -0.5 6.9 -1 13 -1 8.6 0 11.3 0.3 12.5 1.6 1.4 1.4 1.6 8 1.6 58 l0 56.4 19.9 0 c11 0 20.6 0.3 21.5 0.6 1.3 0.5 1.6 2.6 1.6 12.8 0 8.2 -0.4 12.6 -1.2 13.4 -1.7 1.7 -67.9 1.7 -69.6 0z"/>
  <path d="M1697.2 1211.8 c-1.7 -1.7 -1.7 -139.9 0 -141.6 0.8 -0.8 5.1 -1.2 12.8 -1.2 7.7 0 12 0.4 12.8 1.2 0.9 0.9 1.2 18 1.2 71 0 67.9 -0.1 69.8 -1.9 70.8 -2.8 1.4 -23.4 1.3 -24.9 -0.2z"/>
  <path d="M677 555.1 c0 -203.5 0.3 -370.6 0.6 -371.5 0.6 -1.5 21.8 -1.6 230.4 -1.6 207.9 0 229.8 0.1 230.4 1.6 0.7 1.9 0.6 177.1 -0.1 179 -0.4 1.2 -16.6 1.4 -98.4 1.4 l-97.8 0 -2.7 -2.7 c-4.1 -4.4 -10.1 -14 -12.3 -19.8 -9.4 -25.2 -5.3 -62.2 10.5 -93.9 2.5 -4.9 4.3 -9.5 4 -10.3 -0.7 -1.8 -4.2 -1.6 -10.2 0.6 -24.6 9.4 -49.4 37.7 -61.5 70.4 -8 21.5 -10.9 52.8 -7.5 80.3 1.8 15.2 6.1 34.7 10.5 48.5 2.9 9.1 3.1 10.4 3.1 25.5 l-0.1 15.9 -8.9 12 -9 11.9 0.2 15.6 0.3 15.5 45.3 0.3 45.2 0.2 0 -16.4 0 -16.4 -6.5 -11.3 -6.5 -11.4 0 -15.2 0 -15.3 100.5 0 c55.3 0 100.5 0.3 100.5 0.8 0 0.4 -17.4 20.5 -38.6 44.7 -21.3 24.2 -54.9 62.6 -74.7 85.3 l-36 41.2 -64.9 0 -64.8 0 0 65.8 0 65.7 -23.8 23 c-13 12.7 -53.3 51.7 -89.5 86.8 -36.1 35 -66.2 63.7 -66.7 63.7 -0.7 0 -1 -126 -1 -369.9z"/>
 </g>
</svg>